<?xml version="1.0" encoding="UTF-8" standalone="no"?>
<!DOCTYPE svg PUBLIC "-//W3C//DTD SVG 1.1//EN"
 "http://www.w3.org/Graphics/SVG/1.1/DTD/svg11.dtd">
<!-- Generated by graphviz version 12.2.1 (20241206.2353)
 -->
<!-- Title: Org Protocol Troubleshooter Pages: 1 -->
<svg width="412pt" height="583pt"
 viewBox="0.00 0.00 412.25 582.50" xmlns="http://www.w3.org/2000/svg" xmlns:xlink="http://www.w3.org/1999/xlink">
<g id="graph0" class="graph" transform="scale(1 1) rotate(0) translate(4 578.5)">
<title>Org Protocol Troubleshooter</title>
<polygon fill="white" stroke="none" points="-4,4 -4,-578.5 408.25,-578.5 408.25,4 -4,4"/>
<!-- a -->
<g id="node1" class="node">
<title>a</title>
<polygon fill="white" stroke="black" points="329.25,-574.5 275.25,-574.5 275.25,-538.5 329.25,-538.5 329.25,-574.5"/>
<text text-anchor="middle" x="302.25" y="-552.62" font-family="Helvetica,sans-Serif" font-size="10.00">Start</text>
</g>
<!-- a1 -->
<g id="node2" class="node">
<title>a1</title>
<polygon fill="white" stroke="black" points="205.38,-501.5 97.12,-501.5 97.12,-459.75 205.38,-459.75 205.38,-501.5"/>
<text text-anchor="middle" x="151.25" y="-488" font-family="Helvetica,sans-Serif" font-size="10.00">Issue</text>
<text text-anchor="middle" x="151.25" y="-476.75" font-family="Helvetica,sans-Serif" font-size="10.00">org&#45;protocol://capture</text>
<text text-anchor="middle" x="151.25" y="-465.5" font-family="Helvetica,sans-Serif" font-size="10.00">request</text>
</g>
<!-- a&#45;&gt;a1 -->
<g id="edge1" class="edge">
<title>a&#45;&gt;a1</title>
<path fill="none" stroke="black" d="M274.91,-542.12C254.83,-532.3 226.95,-518.66 202.75,-506.82"/>
<polygon fill="black" stroke="black" points="204.51,-503.79 193.99,-502.54 201.44,-510.07 204.51,-503.79"/>
</g>
<!-- a2 -->
<g id="node3" class="node">
<title>a2</title>
<polygon fill="white" stroke="black" points="78.25,-422.75 0,-392.25 78.25,-361.75 156.5,-392.25 78.25,-422.75"/>
<text text-anchor="middle" x="78.25" y="-394" font-family="Helvetica,sans-Serif" font-size="10.00">Emacs Server</text>
<text text-anchor="middle" x="78.25" y="-382.75" font-family="Helvetica,sans-Serif" font-size="10.00">Running?</text>
</g>
<!-- a1&#45;&gt;a2 -->
<g id="edge2" class="edge">
<title>a1&#45;&gt;a2</title>
<path fill="none" stroke="black" d="M134.32,-459.59C125.46,-449.11 114.41,-436.04 104.47,-424.28"/>
<polygon fill="black" stroke="black" points="107.25,-422.14 98.12,-416.76 101.9,-426.66 107.25,-422.14"/>
</g>
<!-- a4 -->
<g id="node4" class="node">
<title>a4</title>
<polygon fill="white" stroke="black" points="292.62,-410.25 191.88,-410.25 191.88,-374.25 292.62,-374.25 292.62,-410.25"/>
<text text-anchor="middle" x="242.25" y="-388.38" font-family="Helvetica,sans-Serif" font-size="10.00">Start Emacs server</text>
</g>
<!-- a2&#45;&gt;a4 -->
<g id="edge3" class="edge">
<title>a2&#45;&gt;a4</title>
<path fill="none" stroke="black" d="M157.85,-392.25C165.26,-392.25 172.69,-392.25 179.91,-392.25"/>
<polygon fill="black" stroke="black" points="179.91,-395.75 189.91,-392.25 179.91,-388.75 179.91,-395.75"/>
<text text-anchor="middle" x="174.19" y="-397" font-family="Helvetica,sans-Serif" font-size="10.00">N</text>
</g>
<!-- a3 -->
<g id="node5" class="node">
<title>a3</title>
<polygon fill="white" stroke="black" points="193.25,-314.5 119.5,-261.5 193.25,-208.5 267,-261.5 193.25,-314.5"/>
<text text-anchor="middle" x="193.25" y="-274.5" font-family="Helvetica,sans-Serif" font-size="10.00">Emacs setup</text>
<text text-anchor="middle" x="193.25" y="-263.25" font-family="Helvetica,sans-Serif" font-size="10.00">for</text>
<text text-anchor="middle" x="193.25" y="-252" font-family="Helvetica,sans-Serif" font-size="10.00">Org Protocol</text>
<text text-anchor="middle" x="193.25" y="-240.75" font-family="Helvetica,sans-Serif" font-size="10.00">capture?</text>
</g>
<!-- a2&#45;&gt;a3 -->
<g id="edge5" class="edge">
<title>a2&#45;&gt;a3</title>
<path fill="none" stroke="black" d="M98.02,-369.12C114.23,-350.96 137.61,-324.79 157.15,-302.92"/>
<polygon fill="black" stroke="black" points="159.64,-305.38 163.69,-295.59 154.42,-300.72 159.64,-305.38"/>
<text text-anchor="middle" x="132.24" y="-334.25" font-family="Helvetica,sans-Serif" font-size="10.00">Y</text>
</g>
<!-- a4&#45;&gt;a -->
<g id="edge4" class="edge">
<title>a4&#45;&gt;a</title>
<path fill="none" stroke="black" d="M248.62,-410.49C258.97,-438.46 279.51,-494 291.95,-527.64"/>
<polygon fill="black" stroke="black" points="288.55,-528.55 295.3,-536.72 295.12,-526.12 288.55,-528.55"/>
<text text-anchor="middle" x="294.09" y="-476.75" font-family="Helvetica,sans-Serif" font-size="10.00">Retry</text>
</g>
<!-- a5 -->
<g id="node6" class="node">
<title>a5</title>
<polygon fill="white" stroke="black" points="352.62,-151.62 281.88,-151.62 281.88,-109.88 352.62,-109.88 352.62,-151.62"/>
<text text-anchor="middle" x="317.25" y="-138.12" font-family="Helvetica,sans-Serif" font-size="10.00">Configure</text>
<text text-anchor="middle" x="317.25" y="-126.88" font-family="Helvetica,sans-Serif" font-size="10.00">Org Protocol</text>
<text text-anchor="middle" x="317.25" y="-115.62" font-family="Helvetica,sans-Serif" font-size="10.00">capture</text>
</g>
<!-- a3&#45;&gt;a5 -->
<g id="edge6" class="edge">
<title>a3&#45;&gt;a5</title>
<path fill="none" stroke="black" d="M222.95,-229.66C243.35,-208.48 270.23,-180.57 290.07,-159.97"/>
<polygon fill="black" stroke="black" points="292.37,-162.63 296.78,-153 287.33,-157.77 292.37,-162.63"/>
<text text-anchor="middle" x="273.75" y="-181" font-family="Helvetica,sans-Serif" font-size="10.00">N</text>
</g>
<!-- a6 -->
<g id="node7" class="node">
<title>a6</title>
<polygon fill="white" stroke="black" points="193.25,-161.25 122.5,-130.75 193.25,-100.25 264,-130.75 193.25,-161.25"/>
<text text-anchor="middle" x="193.25" y="-132.5" font-family="Helvetica,sans-Serif" font-size="10.00">URL request</text>
<text text-anchor="middle" x="193.25" y="-121.25" font-family="Helvetica,sans-Serif" font-size="10.00">success?</text>
</g>
<!-- a3&#45;&gt;a6 -->
<g id="edge8" class="edge">
<title>a3&#45;&gt;a6</title>
<path fill="none" stroke="black" d="M193.25,-208.13C193.25,-196.35 193.25,-184.01 193.25,-172.78"/>
<polygon fill="black" stroke="black" points="196.75,-173.04 193.25,-163.04 189.75,-173.04 196.75,-173.04"/>
<text text-anchor="middle" x="196.62" y="-181" font-family="Helvetica,sans-Serif" font-size="10.00">Y</text>
</g>
<!-- a5&#45;&gt;a -->
<g id="edge7" class="edge">
<title>a5&#45;&gt;a</title>
<path fill="none" stroke="black" d="M320.03,-151.78C323.28,-177.06 328.25,-221.91 328.25,-260.5 328.25,-481.62 328.25,-481.62 328.25,-481.62 328.25,-497.61 322.77,-514.49 316.84,-528.08"/>
<polygon fill="black" stroke="black" points="313.81,-526.28 312.72,-536.82 320.15,-529.26 313.81,-526.28"/>
<text text-anchor="middle" x="340.25" y="-388.38" font-family="Helvetica,sans-Serif" font-size="10.00">Retry</text>
</g>
<!-- a7 -->
<g id="node8" class="node">
<title>a7</title>
<polygon fill="white" stroke="black" points="371.38,-53 299.12,-53 299.12,0 371.38,0 371.38,-53"/>
<text text-anchor="middle" x="335.25" y="-39.5" font-family="Helvetica,sans-Serif" font-size="10.00">Audit/Amend</text>
<text text-anchor="middle" x="335.25" y="-28.25" font-family="Helvetica,sans-Serif" font-size="10.00">Org Protocol</text>
<text text-anchor="middle" x="335.25" y="-17" font-family="Helvetica,sans-Serif" font-size="10.00">capture</text>
<text text-anchor="middle" x="335.25" y="-5.75" font-family="Helvetica,sans-Serif" font-size="10.00">configuration</text>
</g>
<!-- a6&#45;&gt;a7 -->
<g id="edge9" class="edge">
<title>a6&#45;&gt;a7</title>
<path fill="none" stroke="black" d="M219.29,-111C239.09,-96.74 266.8,-76.79 290.16,-59.97"/>
<polygon fill="black" stroke="black" points="291.91,-63.02 297.98,-54.34 287.82,-57.34 291.91,-63.02"/>
<text text-anchor="middle" x="276.5" y="-72.75" font-family="Helvetica,sans-Serif" font-size="10.00">N</text>
</g>
<!-- a8 -->
<g id="node9" class="node">
<title>a8</title>
<polygon fill="white" stroke="black" points="221.88,-44.5 164.62,-44.5 164.62,-8.5 221.88,-8.5 221.88,-44.5"/>
<text text-anchor="middle" x="193.25" y="-22.62" font-family="Helvetica,sans-Serif" font-size="10.00">Success!</text>
</g>
<!-- a6&#45;&gt;a8 -->
<g id="edge11" class="edge">
<title>a6&#45;&gt;a8</title>
<path fill="none" stroke="black" d="M193.25,-99.9C193.25,-86.04 193.25,-69.64 193.25,-55.96"/>
<polygon fill="black" stroke="black" points="196.75,-56.28 193.25,-46.28 189.75,-56.28 196.75,-56.28"/>
<text text-anchor="middle" x="196.62" y="-72.75" font-family="Helvetica,sans-Serif" font-size="10.00">Y</text>
</g>
<!-- a7&#45;&gt;a -->
<g id="edge10" class="edge">
<title>a7&#45;&gt;a</title>
<path fill="none" stroke="black" d="M353.81,-53.47C366.21,-73.36 380.25,-102.02 380.25,-129.75 380.25,-481.62 380.25,-481.62 380.25,-481.62 380.25,-506.31 359.4,-525.21 339.27,-537.72"/>
<polygon fill="black" stroke="black" points="337.75,-534.55 330.84,-542.58 341.25,-540.61 337.75,-534.55"/>
<text text-anchor="middle" x="392.25" y="-334.25" font-family="Helvetica,sans-Serif" font-size="10.00">Retry</text>
</g>
</g>
</svg>
